<svg width="20" height="21" viewBox="0 0 20 21" fill="none" xmlns="http://www.w3.org/2000/svg">
<path fill-rule="evenodd" clip-rule="evenodd" d="M1.11111 0.5H5C5.61111 0.5 6.11111 1 6.11111 1.61111C6.11111 3 6.33333 4.33333 6.74444 5.57778C6.86667 5.96667 6.77778 6.4 6.46667 6.71111L4.02222 9.15556C5.62222 12.3 8.2 14.8667 11.3444 16.4778L13.7889 14.0333C14.0111 13.8222 14.2889 13.7111 14.5778 13.7111C14.6889 13.7111 14.8111 13.7222 14.9222 13.7667C16.1667 14.1778 17.5111 14.4 18.8889 14.4C19.5 14.4 20 14.9 20 15.5111V19.3889C20 20 19.5 20.5 18.8889 20.5C8.45556 20.5 0 12.0444 0 1.61111C0 1 0.5 0.5 1.11111 0.5ZM3.93331 2.72201C3.99998 3.71089 4.16665 4.67756 4.43331 5.59978L3.09998 6.93312C2.64442 5.59978 2.35553 4.18867 2.25553 2.72201H3.93331ZM14.8887 16.0778C15.8331 16.3445 16.7998 16.5111 17.7776 16.5778V18.2334C16.3109 18.1334 14.8998 17.8445 13.5553 17.4L14.8887 16.0778Z" fill="white"/>
</svg>
