<svg width="14" height="21" viewBox="0 0 14 21" fill="none" xmlns="http://www.w3.org/2000/svg">
<path fill-rule="evenodd" clip-rule="evenodd" d="M7 0.5C3.13 0.5 0 3.63 0 7.5C0 12.75 7 20.5 7 20.5C7 20.5 14 12.75 14 7.5C14 3.63 10.87 0.5 7 0.5ZM2 7.5C2 4.74 4.24 2.5 7 2.5C9.76 2.5 12 4.74 12 7.5C12 10.38 9.12 14.69 7 17.38C4.92 14.71 2 10.35 2 7.5ZM4.5 7.5C4.5 6.11929 5.61929 5 7 5C7.89316 5 8.71848 5.4765 9.16506 6.25C9.61165 7.0235 9.61165 7.9765 9.16506 8.75C8.71848 9.5235 7.89316 10 7 10C5.61929 10 4.5 8.88071 4.5 7.5Z" fill="white"/>
</svg>
